<?xml version="1.0" standalone="no"?>
<!DOCTYPE svg PUBLIC "-//W3C//DTD SVG 20010904//EN"
 "http://www.w3.org/TR/2001/REC-SVG-20010904/DTD/svg10.dtd">
<svg version="1.0" xmlns="http://www.w3.org/2000/svg"
 width="1200.000000pt" height="1200.000000pt" viewBox="0 0 1200.000000 1200.000000"
 preserveAspectRatio="xMidYMid meet">
<metadata>
Created by potrace 1.11, written by Peter Selinger 2001-2013
</metadata>
<g transform="translate(0.000000,1200.000000) scale(0.100000,-0.100000)"
fill="#000000" stroke="none">
<path d="M3103 9673 c-51 -24 -67 -87 -39 -155 34 -79 181 -239 387 -419 35
-31 85 -76 111 -100 27 -24 60 -55 76 -69 52 -46 175 -155 196 -173 30 -26
167 -149 186 -167 9 -8 34 -31 56 -50 22 -19 74 -66 116 -103 l76 -68 -41 -63
c-23 -34 -47 -71 -53 -82 -6 -10 -22 -40 -36 -65 -14 -25 -31 -54 -37 -65 -73
-128 -165 -417 -188 -589 -15 -118 -7 -464 12 -495 3 -5 -15 -28 -40 -52 -128
-120 -163 -268 -92 -388 49 -84 149 -149 250 -164 53 -8 43 7 122 -176 36 -82
83 -182 205 -435 95 -197 160 -335 160 -340 0 -2 11 -28 24 -57 80 -176 189
-505 189 -573 1 -34 -23 -71 -56 -87 -67 -34 -80 -37 -187 -44 -47 -4 -86 -8
-88 -9 -7 -6 64 -78 103 -105 40 -27 185 -76 185 -62 0 3 5 1 10 -4 11 -11
-36 -137 -92 -248 -26 -53 -150 -242 -167 -256 -19 -16 -119 -151 -192 -261
-64 -94 -173 -315 -183 -369 -1 -8 -15 -55 -31 -105 -16 -49 -30 -94 -31 -100
-1 -5 -13 -59 -27 -120 -14 -60 -28 -123 -30 -140 -5 -31 -21 -125 -32 -185
-24 -129 -11 -226 38 -278 37 -40 141 -83 231 -97 21 -3 49 -8 62 -11 37 -9
175 -11 214 -3 19 4 49 10 65 12 98 15 110 21 160 71 42 42 53 61 63 106 17
77 19 88 26 155 10 89 16 112 47 182 74 165 226 314 415 406 66 33 176 74 219
83 37 7 190 34 196 34 4 0 14 -28 24 -62 27 -92 24 -256 -5 -372 -22 -89 -45
-145 -84 -200 l-20 -29 57 6 c70 9 209 72 257 118 73 69 115 140 139 234 13
47 7 256 -7 302 -9 28 -8 31 11 35 50 9 487 -5 507 -17 3 -1 30 -6 61 -9 56
-7 79 -10 129 -21 14 -3 34 -7 45 -9 93 -19 265 -66 310 -85 11 -5 47 -19 80
-32 85 -32 226 -102 324 -163 133 -80 221 -176 371 -401 137 -206 150 -217
268 -238 112 -21 260 -12 392 23 144 38 294 153 320 246 16 55 9 81 -35 138
-19 26 -35 50 -35 55 0 5 -3 11 -7 13 -9 4 -131 165 -194 257 -24 35 -59 84
-77 110 -18 25 -50 71 -70 101 -20 30 -41 60 -47 66 -5 6 -17 22 -25 34 -8 12
-41 58 -73 102 -56 77 -57 80 -30 74 15 -4 39 -9 53 -11 14 -3 36 -7 50 -11
119 -27 428 -23 545 7 22 5 47 12 55 14 8 2 22 4 30 5 25 1 -8 16 -55 24 -35
6 -142 37 -185 53 -8 3 -20 7 -26 8 -14 3 -202 83 -224 95 -8 5 44 7 115 6
109 -3 227 5 295 18 78 15 180 41 180 45 0 3 -35 6 -78 7 -223 3 -414 56 -567
161 -23 15 -24 15 41 18 28 1 64 5 80 9 16 5 36 9 44 11 41 8 132 57 170 91
46 41 93 106 105 142 l7 23 -39 -19 c-196 -99 -383 -82 -478 42 -29 38 -51
106 -49 146 1 14 2 35 3 47 1 19 5 21 39 17 55 -8 215 -46 227 -54 6 -3 33
-15 60 -25 99 -36 232 -111 328 -185 l27 -22 -10 26 c-53 141 -196 282 -430
426 -47 29 -86 54 -88 55 -2 2 -6 18 -8 37 -5 34 -20 118 -28 153 -33 154
-114 298 -219 390 -53 46 -170 110 -219 119 -15 2 -31 7 -35 9 -10 6 -125 20
-174 21 -30 1 -48 12 -102 63 -132 124 -255 172 -472 186 l-29 2 2 85 c2 47 5
108 7 135 2 28 7 91 10 140 7 101 24 229 40 303 7 28 93 115 211 212 102 85
122 101 284 217 14 10 65 44 115 75 49 32 95 62 102 68 7 5 14 10 16 10 3 0
49 25 103 56 90 51 338 174 351 174 3 0 19 6 36 14 41 18 182 68 274 97 90 28
134 63 169 135 24 49 28 69 28 148 0 104 -8 159 -34 228 -28 73 -65 131 -111
172 -92 84 -194 101 -345 60 -49 -14 -98 -27 -108 -29 -19 -4 -227 -69 -331
-103 -27 -9 -52 -17 -55 -17 -14 -2 -329 -104 -380 -123 -8 -3 -19 -6 -25 -7
-18 -5 -480 -157 -486 -161 -3 -2 -32 17 -64 41 -31 25 -61 45 -64 45 -4 0
-22 33 -40 73 -17 39 -36 79 -41 87 -5 8 -17 31 -27 50 -50 103 -191 270 -228
270 -6 0 -23 21 -36 47 -29 57 -132 164 -176 182 -17 7 -34 19 -37 27 -3 7 3
73 14 146 23 161 35 270 45 408 6 74 6 280 1 306 -22 108 -58 149 -124 141
-69 -8 -87 -22 -349 -282 l-212 -211 -243 0 c-203 0 -354 -11 -428 -29 -101
-25 -136 -39 -253 -96 -86 -43 -99 -46 -104 -31 -10 27 -112 191 -157 252 -78
106 -122 133 -174 106 -29 -15 -66 -78 -76 -128 -2 -12 -7 -34 -10 -48 -3 -14
-8 -47 -11 -74 -3 -27 -7 -51 -9 -54 -4 -4 -48 24 -81 51 -18 14 -308 228
-395 291 -47 33 -92 66 -100 73 -8 7 -91 69 -185 139 -252 187 -323 221 -392
187z m4217 -4107 c25 -2 77 -10 115 -17 l70 -13 -45 -13 c-27 -8 -61 -11 -85
-8 -63 10 -88 15 -115 19 -14 3 -37 5 -52 5 -20 1 -28 6 -28 19 0 19 10 20
140 8z m738 -358 c145 -70 294 -209 360 -335 12 -21 10 -21 -71 8 -45 16 -91
29 -103 29 -15 0 -34 23 -75 91 -48 82 -76 117 -166 212 -34 35 -26 34 55 -5z"/>
</g>
</svg>
